<svg width="106" height="43" viewBox="0 0 106 43" fill="none" xmlns="http://www.w3.org/2000/svg">
<path d="M48.9062 35.2324H49.2871C50.3809 31.8926 51.3086 29.0117 52.0703 26.5898C52.832 24.1484 53.4668 22.0684 53.9746 20.3496C54.4824 18.6309 54.873 17.2148 55.1465 16.1016C55.4199 14.9883 55.625 14.0801 55.7617 13.377C55.8984 12.6543 55.9766 12.0879 55.9961 11.6777C56.0352 11.248 56.0547 10.877 56.0547 10.5645C56.0547 9.68555 55.9961 8.85547 55.8789 8.07422C55.7812 7.27344 55.6543 6.53125 55.498 5.84766C55.3418 5.14453 55.1758 4.50977 55 3.94336C54.8438 3.35742 54.6973 2.83984 54.5605 2.39062C57.998 0.90625 59.8242 0.144531 60.0391 0.105469C60.2539 0.0664062 60.4688 0.046875 60.6836 0.046875C61.4062 0.046875 61.9629 0.388672 62.3535 1.07227C62.7441 1.73633 62.9395 2.63477 62.9395 3.76758C62.9395 4.8418 62.7832 6.18945 62.4707 7.81055C62.1777 9.41211 61.7578 11.209 61.2109 13.2012C60.6641 15.1934 60 17.3418 59.2188 19.6465C58.457 21.9512 57.5977 24.3438 56.6406 26.8242C55.7031 29.3047 54.6875 31.834 53.5938 34.4121C52.5 36.9707 51.3574 39.5 50.166 42H46.6211C46.1523 42 45.7422 41.9707 45.3906 41.9121C45.0391 41.834 44.7168 41.707 44.4238 41.5312C44.1504 41.3555 43.9062 41.1113 43.6914 40.7988C43.4961 40.4863 43.3203 40.0859 43.1641 39.5977L35.2246 17.4492C34.9902 18.4844 34.6777 19.6465 34.2871 20.9355C33.916 22.2246 33.4863 23.582 32.998 25.0078C32.5098 26.4336 31.9824 27.8984 31.416 29.4023C30.8496 30.9062 30.2539 32.4004 29.6289 33.8848C29.0234 35.3496 28.4082 36.7754 27.7832 38.1621C27.1582 39.5488 26.543 40.8281 25.9375 42H22.2168C21.748 42 21.3379 41.9707 20.9863 41.9121C20.6348 41.834 20.3223 41.707 20.0488 41.5312C19.7754 41.3555 19.5312 41.1113 19.3164 40.7988C19.1016 40.4863 18.9062 40.0859 18.7305 39.5977L6.13281 5.4668L0.976562 7.75195L0.00976562 5.64258C0.498047 5.19336 1.12305 4.64648 1.88477 4.00195C2.64648 3.35742 3.45703 2.74219 4.31641 2.15625C5.19531 1.57031 6.06445 1.07227 6.92383 0.662109C7.7832 0.251953 8.55469 0.046875 9.23828 0.046875C9.84375 0.046875 10.4395 0.203125 11.0254 0.515625C11.6113 0.828125 12.041 1.35547 12.3145 2.09766L24.5605 35.2324H24.9121C25.5371 33.7871 26.123 32.2832 26.6699 30.7207C27.2363 29.1387 27.7637 27.5566 28.252 25.9746C28.7402 24.3926 29.1895 22.8398 29.5996 21.3164C30.0098 19.7734 30.3906 18.2988 30.7422 16.8926C31.0938 15.4863 31.3965 14.1875 31.6504 12.9961C31.9238 11.7852 32.1582 10.7305 32.3535 9.83203L32.1191 9.07031C31.7285 7.89844 31.3574 6.89258 31.0059 6.05273C30.6738 5.19336 30.3613 4.4707 30.0684 3.88477C29.7754 3.2793 29.5117 2.80078 29.2773 2.44922C29.0625 2.07812 28.8867 1.78516 28.75 1.57031C29.4141 1.00391 30.1855 0.613281 31.0645 0.398438C31.9434 0.164062 32.7148 0.046875 33.3789 0.046875C33.9062 0.046875 34.3652 0.0859375 34.7559 0.164062C35.166 0.222656 35.5273 0.349609 35.8398 0.544922C36.1523 0.740234 36.4258 1.02344 36.6602 1.39453C36.9141 1.74609 37.1387 2.20508 37.334 2.77148L48.9062 35.2324ZM88.8379 0.046875C91.1426 0.046875 93.2422 0.251953 95.1367 0.662109C97.0508 1.05273 98.6914 1.70703 100.059 2.625C101.426 3.54297 102.48 4.75391 103.223 6.25781C103.965 7.76172 104.336 9.61719 104.336 11.8242C104.336 12.3125 104.277 12.8594 104.16 13.4648C104.062 14.0703 103.887 14.6953 103.633 15.3398C103.379 15.9844 103.047 16.6191 102.637 17.2441C102.246 17.8496 101.758 18.416 101.172 18.9434C100.586 19.4707 99.8926 19.9199 99.0918 20.291C98.3105 20.6621 97.4121 20.916 96.3965 21.0527C98.0566 21.2285 99.4531 21.5898 100.586 22.1367C101.738 22.6836 102.666 23.3867 103.369 24.2461C104.092 25.1055 104.609 26.0918 104.922 27.2051C105.254 28.3184 105.42 29.5293 105.42 30.8379C105.42 33.1621 104.961 35.0859 104.043 36.6094C103.145 38.1133 101.895 39.3047 100.293 40.1836C98.6914 41.0625 96.8066 41.668 94.6387 42C92.4902 42.3516 90.1758 42.5273 87.6953 42.5273C85.7031 42.5273 83.8379 42.4785 82.0996 42.3809C80.3809 42.3027 78.6133 42.1562 76.7969 41.9414C75.918 41.8438 75.3125 41.6094 74.9805 41.2383C74.668 40.8672 74.5117 40.2617 74.5117 39.4219V4.73438L68.8574 5.17383V2.56641C69.7559 2.19531 70.9277 1.86328 72.373 1.57031C73.8379 1.25781 75.459 0.994141 77.2363 0.779297C79.0332 0.544922 80.918 0.369141 82.8906 0.251953C84.8828 0.134766 86.8652 0.0664062 88.8379 0.046875ZM89.8047 23.2793C89.1992 23.2402 88.6133 23.2207 88.0469 23.2207C87.4805 23.2207 86.9238 23.2207 86.377 23.2207C85.6934 23.2207 85.0586 23.2305 84.4727 23.25C83.9062 23.25 83.4082 23.2598 82.9785 23.2793C82.4707 23.2988 82.0117 23.3184 81.6016 23.3379V37.8105C82.1289 37.9863 82.7441 38.1426 83.4473 38.2793C84.0527 38.3965 84.7852 38.5039 85.6445 38.6016C86.5039 38.6992 87.4902 38.748 88.6035 38.748C90.6738 38.748 92.3535 38.5234 93.6426 38.0742C94.9316 37.6055 95.9277 37.0098 96.6309 36.2871C97.3535 35.5645 97.832 34.7637 98.0664 33.8848C98.3203 33.0059 98.4473 32.1465 98.4473 31.3066C98.4473 30.1543 98.291 29.1094 97.9785 28.1719C97.6855 27.2148 97.1973 26.3945 96.5137 25.7109C95.8496 25.0078 94.9609 24.4512 93.8477 24.041C92.7539 23.6309 91.4062 23.377 89.8047 23.2793ZM88.7793 4.08984C87.7637 4.08984 86.8164 4.10938 85.9375 4.14844C85.0586 4.16797 84.2969 4.19727 83.6523 4.23633C83.0078 4.27539 82.5 4.31445 82.1289 4.35352C81.7773 4.39258 81.6016 4.42188 81.6016 4.44141V19.1484C82.5391 19.3242 83.3789 19.4512 84.1211 19.5293C84.8828 19.5879 85.5762 19.6172 86.2012 19.6172C88.3105 19.6172 90.0879 19.4121 91.5332 19.002C92.9785 18.5723 94.1504 17.9961 95.0488 17.2734C95.9473 16.5508 96.5918 15.7109 96.9824 14.7539C97.3926 13.7969 97.5977 12.7812 97.5977 11.707C97.5977 10.5352 97.4316 9.48047 97.0996 8.54297C96.7676 7.60547 96.25 6.81445 95.5469 6.16992C94.8438 5.50586 93.9355 4.99805 92.8223 4.64648C91.709 4.29492 90.3613 4.10938 88.7793 4.08984Z" fill="#E27D60"/>
</svg>
