<svg width="392" height="60" viewBox="0 0 392 60" fill="none" xmlns="http://www.w3.org/2000/svg">
<path d="M49.2891 38.2324H49.6699C50.7637 34.8926 51.6914 32.0117 52.4531 29.5898C53.2148 27.1484 53.8496 25.0684 54.3574 23.3496C54.8652 21.6309 55.2559 20.2148 55.5293 19.1016C55.8027 17.9883 56.0078 17.0801 56.1445 16.377C56.2812 15.6543 56.3594 15.0879 56.3789 14.6777C56.418 14.248 56.4375 13.877 56.4375 13.5645C56.4375 12.6855 56.3789 11.8555 56.2617 11.0742C56.1641 10.2734 56.0371 9.53125 55.8809 8.84766C55.7246 8.14453 55.5586 7.50977 55.3828 6.94336C55.2266 6.35742 55.0801 5.83984 54.9434 5.39062C58.3809 3.90625 60.207 3.14453 60.4219 3.10547C60.6367 3.06641 60.8516 3.04688 61.0664 3.04688C61.7891 3.04688 62.3457 3.38867 62.7363 4.07227C63.127 4.73633 63.3223 5.63477 63.3223 6.76758C63.3223 7.8418 63.166 9.18945 62.8535 10.8105C62.5605 12.4121 62.1406 14.209 61.5938 16.2012C61.0469 18.1934 60.3828 20.3418 59.6016 22.6465C58.8398 24.9512 57.9805 27.3438 57.0234 29.8242C56.0859 32.3047 55.0703 34.834 53.9766 37.4121C52.8828 39.9707 51.7402 42.5 50.5488 45H47.0039C46.5352 45 46.125 44.9707 45.7734 44.9121C45.4219 44.834 45.0996 44.707 44.8066 44.5312C44.5332 44.3555 44.2891 44.1113 44.0742 43.7988C43.8789 43.4863 43.7031 43.0859 43.5469 42.5977L35.6074 20.4492C35.373 21.4844 35.0605 22.6465 34.6699 23.9355C34.2988 25.2246 33.8691 26.582 33.3809 28.0078C32.8926 29.4336 32.3652 30.8984 31.7988 32.4023C31.2324 33.9062 30.6367 35.4004 30.0117 36.8848C29.4062 38.3496 28.791 39.7754 28.166 41.1621C27.541 42.5488 26.9258 43.8281 26.3203 45H22.5996C22.1309 45 21.7207 44.9707 21.3691 44.9121C21.0176 44.834 20.7051 44.707 20.4316 44.5312C20.1582 44.3555 19.9141 44.1113 19.6992 43.7988C19.4844 43.4863 19.2891 43.0859 19.1133 42.5977L6.51562 8.4668L1.35938 10.752L0.392578 8.64258C0.880859 8.19336 1.50586 7.64648 2.26758 7.00195C3.0293 6.35742 3.83984 5.74219 4.69922 5.15625C5.57812 4.57031 6.44727 4.07227 7.30664 3.66211C8.16602 3.25195 8.9375 3.04688 9.62109 3.04688C10.2266 3.04688 10.8223 3.20312 11.4082 3.51562C11.9941 3.82812 12.4238 4.35547 12.6973 5.09766L24.9434 38.2324H25.2949C25.9199 36.7871 26.5059 35.2832 27.0527 33.7207C27.6191 32.1387 28.1465 30.5566 28.6348 28.9746C29.123 27.3926 29.5723 25.8398 29.9824 24.3164C30.3926 22.7734 30.7734 21.2988 31.125 19.8926C31.4766 18.4863 31.7793 17.1875 32.0332 15.9961C32.3066 14.7852 32.541 13.7305 32.7363 12.832L32.502 12.0703C32.1113 10.8984 31.7402 9.89258 31.3887 9.05273C31.0566 8.19336 30.7441 7.4707 30.4512 6.88477C30.1582 6.2793 29.8945 5.80078 29.6602 5.44922C29.4453 5.07812 29.2695 4.78516 29.1328 4.57031C29.7969 4.00391 30.5684 3.61328 31.4473 3.39844C32.3262 3.16406 33.0977 3.04688 33.7617 3.04688C34.2891 3.04688 34.748 3.08594 35.1387 3.16406C35.5488 3.22266 35.9102 3.34961 36.2227 3.54492C36.5352 3.74023 36.8086 4.02344 37.043 4.39453C37.2969 4.74609 37.5215 5.20508 37.7168 5.77148L49.2891 38.2324ZM100.852 30.0586C100.852 32.4414 100.432 34.6094 99.5918 36.5625C98.7715 38.5156 97.6289 40.1855 96.1641 41.5723C94.7188 42.959 93.0195 44.0332 91.0664 44.7949C89.1133 45.5371 87.0234 45.9082 84.7969 45.9082C82.5312 45.9082 80.4121 45.5273 78.4395 44.7656C76.4863 44.0039 74.7871 42.9297 73.3418 41.543C71.8965 40.1562 70.7539 38.4961 69.9141 36.5625C69.0742 34.6094 68.6543 32.4414 68.6543 30.0586C68.6543 27.6562 69.0742 25.4785 69.9141 23.5254C70.7539 21.5527 71.8965 19.873 73.3418 18.4863C74.7871 17.0801 76.4863 15.9961 78.4395 15.2344C80.4121 14.4727 82.5312 14.0918 84.7969 14.0918C87.043 14.0918 89.1426 14.4727 91.0957 15.2344C93.0488 15.9961 94.748 17.0801 96.1934 18.4863C97.6387 19.873 98.7715 21.5527 99.5918 23.5254C100.432 25.4785 100.852 27.6562 100.852 30.0586ZM75.8906 30C75.8906 31.6602 76.0176 33.2617 76.2715 34.8047C76.5254 36.3477 76.9844 37.7148 77.6484 38.9062C78.332 40.0781 79.2402 41.0156 80.373 41.7188C81.5254 42.4219 83 42.7734 84.7969 42.7734C86.5742 42.7734 88.0293 42.4219 89.1621 41.7188C90.3145 41.0156 91.2129 40.0781 91.8574 38.9062C92.5215 37.7148 92.9805 36.3477 93.2344 34.8047C93.4883 33.2617 93.6152 31.6602 93.6152 30C93.6152 28.3398 93.4883 26.7383 93.2344 25.1953C92.9805 23.6523 92.5215 22.2949 91.8574 21.123C91.2129 19.9316 90.3145 18.9844 89.1621 18.2812C88.0293 17.5781 86.5742 17.2266 84.7969 17.2266C83 17.2266 81.5254 17.5781 80.373 18.2812C79.2402 18.9844 78.332 19.9316 77.6484 21.123C76.9844 22.2949 76.5254 23.6523 76.2715 25.1953C76.0176 26.7383 75.8906 28.3398 75.8906 30ZM106.242 15.791C106.652 15.6152 107.229 15.4492 107.971 15.293C108.713 15.1367 109.523 15.0098 110.402 14.9121C111.301 14.8145 112.209 14.7363 113.127 14.6777C114.064 14.6191 114.914 14.5898 115.676 14.5898C116.086 14.5898 116.447 14.5996 116.76 14.6191C117.072 14.6387 117.336 14.6973 117.551 14.7949C117.766 14.8926 117.922 15.0488 118.02 15.2637C118.137 15.459 118.195 15.752 118.195 16.1426V23.1738L121.916 17.8711C122.854 16.582 123.889 15.6348 125.021 15.0293C126.174 14.4043 127.473 14.0918 128.918 14.0918C129.172 14.0918 129.494 14.1113 129.885 14.1504C130.295 14.1699 130.686 14.2383 131.057 14.3555C131.447 14.4727 131.779 14.6387 132.053 14.8535C132.326 15.0684 132.463 15.3613 132.463 15.7324C132.463 15.8301 132.463 15.9082 132.463 15.9668C132.463 16.0254 132.443 16.1035 132.404 16.2012L131.145 20.332C130.402 20.0977 129.729 19.9316 129.123 19.834C128.537 19.7363 127.99 19.6875 127.482 19.6875C126.428 19.6875 125.422 19.9902 124.465 20.5957C123.508 21.1816 122.629 21.8848 121.828 22.7051C121.027 23.5059 120.314 24.3262 119.689 25.166C119.084 25.9863 118.586 26.6211 118.195 27.0703V36.1816C118.195 37.3926 118.225 38.457 118.283 39.375C118.342 40.293 118.41 41.0938 118.488 41.7773C118.586 42.4609 118.684 43.0371 118.781 43.5059C118.879 43.9551 118.957 44.3164 119.016 44.5898C118.742 44.7461 118.43 44.8828 118.078 45C117.746 45.0977 117.385 45.1855 116.994 45.2637C116.623 45.3613 116.242 45.4297 115.852 45.4688C115.48 45.5078 115.139 45.5273 114.826 45.5273C114.318 45.5273 113.859 45.4785 113.449 45.3809C113.039 45.3027 112.678 45.1562 112.365 44.9414C112.053 44.7266 111.809 44.4434 111.633 44.0918C111.477 43.7207 111.398 43.2617 111.398 42.7148V17.9883H106.242V15.791ZM134.309 3.42773V1.20117C134.719 1.02539 135.295 0.859375 136.037 0.703125C136.799 0.546875 137.619 0.419922 138.498 0.322266C139.377 0.224609 140.275 0.146484 141.193 0.0878906C142.131 0.0292969 142.98 0 143.742 0C144.152 0 144.514 0.00976562 144.826 0.0292969C145.139 0.0488281 145.402 0.107422 145.617 0.205078C145.832 0.302734 145.988 0.458984 146.086 0.673828C146.203 0.869141 146.262 1.16211 146.262 1.55273V36.1816C146.262 38.584 146.369 40.4492 146.584 41.7773C146.799 43.1055 146.975 44.043 147.111 44.5898C146.838 44.7461 146.525 44.8828 146.174 45C145.822 45.0977 145.451 45.1855 145.061 45.2637C144.689 45.3613 144.309 45.4297 143.918 45.4688C143.547 45.5078 143.205 45.5273 142.893 45.5273C142.404 45.5273 141.945 45.4785 141.516 45.3809C141.105 45.3027 140.744 45.1562 140.432 44.9414C140.139 44.7266 139.904 44.4434 139.729 44.0918C139.572 43.7207 139.494 43.2617 139.494 42.7148V3.42773H134.309ZM164.924 16.2598C164.924 16.8848 164.729 17.5488 164.338 18.252C163.967 18.9551 163.459 19.6777 162.814 20.4199C162.189 21.1426 161.467 21.875 160.646 22.6172C159.846 23.3594 159.006 24.082 158.127 24.7852C157.268 25.4688 156.418 26.1328 155.578 26.7773C154.738 27.4023 153.977 27.9785 153.293 28.5059L162.58 40.3711L166.916 37.5586L168.088 39.3457C167.736 40.0098 167.229 40.7129 166.564 41.4551C165.92 42.1777 165.197 42.8418 164.396 43.4473C163.615 44.0527 162.805 44.5508 161.965 44.9414C161.125 45.332 160.354 45.5273 159.65 45.5273C159.201 45.5273 158.752 45.4199 158.303 45.2051C157.873 44.9902 157.482 44.6387 157.131 44.1504L147.521 31.8457C147.443 31.748 147.375 31.6406 147.316 31.5234C147.18 31.2891 147.111 31.0254 147.111 30.7324C147.111 30.5176 147.16 30.3027 147.258 30.0879C147.355 29.8535 147.521 29.6289 147.756 29.4141C148.166 29.043 148.693 28.5938 149.338 28.0664C149.982 27.5391 150.656 26.9629 151.359 26.3379C152.082 25.7129 152.805 25.0488 153.527 24.3457C154.25 23.623 154.895 22.9004 155.461 22.1777C156.047 21.4551 156.516 20.7324 156.867 20.0098C157.238 19.2871 157.424 18.5938 157.424 17.9297C157.424 17.4023 157.346 16.9434 157.189 16.5527C158.186 16.0645 158.977 15.6641 159.562 15.3516C160.168 15.0195 160.656 14.7656 161.027 14.5898C161.398 14.3945 161.721 14.2676 161.994 14.209C162.268 14.1309 162.58 14.0918 162.932 14.0918C163.596 14.0918 164.094 14.3066 164.426 14.7363C164.758 15.1465 164.924 15.6543 164.924 16.2598ZM207.873 3.04688C210.178 3.04688 212.277 3.25195 214.172 3.66211C216.086 4.05273 217.727 4.70703 219.094 5.625C220.461 6.54297 221.516 7.75391 222.258 9.25781C223 10.7617 223.371 12.6172 223.371 14.8242C223.371 15.3125 223.312 15.8594 223.195 16.4648C223.098 17.0703 222.922 17.6953 222.668 18.3398C222.414 18.9844 222.082 19.6191 221.672 20.2441C221.281 20.8496 220.793 21.416 220.207 21.9434C219.621 22.4707 218.928 22.9199 218.127 23.291C217.346 23.6621 216.447 23.916 215.432 24.0527C217.092 24.2285 218.488 24.5898 219.621 25.1367C220.773 25.6836 221.701 26.3867 222.404 27.2461C223.127 28.1055 223.645 29.0918 223.957 30.2051C224.289 31.3184 224.455 32.5293 224.455 33.8379C224.455 36.1621 223.996 38.0859 223.078 39.6094C222.18 41.1133 220.93 42.3047 219.328 43.1836C217.727 44.0625 215.842 44.668 213.674 45C211.525 45.3516 209.211 45.5273 206.73 45.5273C204.738 45.5273 202.873 45.4785 201.135 45.3809C199.416 45.3027 197.648 45.1562 195.832 44.9414C194.953 44.8438 194.348 44.6094 194.016 44.2383C193.703 43.8672 193.547 43.2617 193.547 42.4219V7.73438L187.893 8.17383V5.56641C188.791 5.19531 189.963 4.86328 191.408 4.57031C192.873 4.25781 194.494 3.99414 196.271 3.7793C198.068 3.54492 199.953 3.36914 201.926 3.25195C203.918 3.13477 205.9 3.06641 207.873 3.04688ZM208.84 26.2793C208.234 26.2402 207.648 26.2207 207.082 26.2207C206.516 26.2207 205.959 26.2207 205.412 26.2207C204.729 26.2207 204.094 26.2305 203.508 26.25C202.941 26.25 202.443 26.2598 202.014 26.2793C201.506 26.2988 201.047 26.3184 200.637 26.3379V40.8105C201.164 40.9863 201.779 41.1426 202.482 41.2793C203.088 41.3965 203.82 41.5039 204.68 41.6016C205.539 41.6992 206.525 41.748 207.639 41.748C209.709 41.748 211.389 41.5234 212.678 41.0742C213.967 40.6055 214.963 40.0098 215.666 39.2871C216.389 38.5645 216.867 37.7637 217.102 36.8848C217.355 36.0059 217.482 35.1465 217.482 34.3066C217.482 33.1543 217.326 32.1094 217.014 31.1719C216.721 30.2148 216.232 29.3945 215.549 28.7109C214.885 28.0078 213.996 27.4512 212.883 27.041C211.789 26.6309 210.441 26.377 208.84 26.2793ZM207.814 7.08984C206.799 7.08984 205.852 7.10938 204.973 7.14844C204.094 7.16797 203.332 7.19727 202.688 7.23633C202.043 7.27539 201.535 7.31445 201.164 7.35352C200.812 7.39258 200.637 7.42188 200.637 7.44141V22.1484C201.574 22.3242 202.414 22.4512 203.156 22.5293C203.918 22.5879 204.611 22.6172 205.236 22.6172C207.346 22.6172 209.123 22.4121 210.568 22.002C212.014 21.5723 213.186 20.9961 214.084 20.2734C214.982 19.5508 215.627 18.7109 216.018 17.7539C216.428 16.7969 216.633 15.7812 216.633 14.707C216.633 13.5352 216.467 12.4805 216.135 11.543C215.803 10.6055 215.285 9.81445 214.582 9.16992C213.879 8.50586 212.971 7.99805 211.857 7.64648C210.744 7.29492 209.396 7.10938 207.814 7.08984ZM230.344 15.791C230.754 15.6152 231.33 15.4492 232.072 15.293C232.814 15.1367 233.625 15.0098 234.504 14.9121C235.402 14.8145 236.311 14.7363 237.229 14.6777C238.166 14.6191 239.016 14.5898 239.777 14.5898C240.188 14.5898 240.549 14.5996 240.861 14.6191C241.174 14.6387 241.438 14.6973 241.652 14.7949C241.867 14.8926 242.023 15.0488 242.121 15.2637C242.238 15.459 242.297 15.752 242.297 16.1426V23.1738L246.018 17.8711C246.955 16.582 247.99 15.6348 249.123 15.0293C250.275 14.4043 251.574 14.0918 253.02 14.0918C253.273 14.0918 253.596 14.1113 253.986 14.1504C254.396 14.1699 254.787 14.2383 255.158 14.3555C255.549 14.4727 255.881 14.6387 256.154 14.8535C256.428 15.0684 256.564 15.3613 256.564 15.7324C256.564 15.8301 256.564 15.9082 256.564 15.9668C256.564 16.0254 256.545 16.1035 256.506 16.2012L255.246 20.332C254.504 20.0977 253.83 19.9316 253.225 19.834C252.639 19.7363 252.092 19.6875 251.584 19.6875C250.529 19.6875 249.523 19.9902 248.566 20.5957C247.609 21.1816 246.73 21.8848 245.93 22.7051C245.129 23.5059 244.416 24.3262 243.791 25.166C243.186 25.9863 242.688 26.6211 242.297 27.0703V36.1816C242.297 37.3926 242.326 38.457 242.385 39.375C242.443 40.293 242.512 41.0938 242.59 41.7773C242.688 42.4609 242.785 43.0371 242.883 43.5059C242.98 43.9551 243.059 44.3164 243.117 44.5898C242.844 44.7461 242.531 44.8828 242.18 45C241.848 45.0977 241.486 45.1855 241.096 45.2637C240.725 45.3613 240.344 45.4297 239.953 45.4688C239.582 45.5078 239.24 45.5273 238.928 45.5273C238.42 45.5273 237.961 45.4785 237.551 45.3809C237.141 45.3027 236.779 45.1562 236.467 44.9414C236.154 44.7266 235.91 44.4434 235.734 44.0918C235.578 43.7207 235.5 43.2617 235.5 42.7148V17.9883H230.344V15.791ZM271.359 42.0703H276.457V44.2676C276.125 44.4434 275.666 44.6094 275.08 44.7656C274.514 44.9219 273.879 45.0586 273.176 45.1758C272.473 45.293 271.74 45.3809 270.979 45.4395C270.217 45.498 269.484 45.5273 268.781 45.5273C268.176 45.5273 267.619 45.4883 267.111 45.4102C266.604 45.3516 266.154 45.2148 265.764 45C265.393 44.8047 265.1 44.5312 264.885 44.1797C264.67 43.8086 264.562 43.3203 264.562 42.7148V17.8711H259.406V15.6738C259.816 15.498 260.393 15.332 261.135 15.1758C261.877 15.0195 262.688 14.8926 263.566 14.7949C264.465 14.6973 265.373 14.6191 266.291 14.5605C267.229 14.502 268.078 14.4727 268.84 14.4727C269.25 14.4727 269.611 14.4824 269.924 14.502C270.236 14.5215 270.5 14.5801 270.715 14.6777C270.93 14.7754 271.086 14.9316 271.184 15.1465C271.301 15.3418 271.359 15.6348 271.359 16.0254V42.0703ZM263.859 4.80469C263.859 4.25781 263.967 3.74023 264.182 3.25195C264.396 2.76367 264.689 2.34375 265.061 1.99219C265.432 1.64062 265.871 1.36719 266.379 1.17188C266.887 0.957031 267.424 0.849609 267.99 0.849609C268.557 0.849609 269.094 0.957031 269.602 1.17188C270.109 1.36719 270.549 1.64062 270.92 1.99219C271.291 2.34375 271.584 2.76367 271.799 3.25195C272.014 3.74023 272.121 4.25781 272.121 4.80469C272.121 5.35156 272.014 5.85938 271.799 6.32812C271.584 6.79688 271.291 7.20703 270.92 7.55859C270.549 7.91016 270.109 8.19336 269.602 8.4082C269.094 8.60352 268.557 8.70117 267.99 8.70117C267.424 8.70117 266.887 8.60352 266.379 8.4082C265.871 8.19336 265.432 7.91016 265.061 7.55859C264.689 7.20703 264.396 6.79688 264.182 6.32812C263.967 5.85938 263.859 5.35156 263.859 4.80469ZM305.168 20.2734C304.582 19.9609 303.986 19.6484 303.381 19.3359C302.775 19.0234 302.131 18.75 301.447 18.5156C300.783 18.2617 300.061 18.0664 299.279 17.9297C298.498 17.7734 297.639 17.6953 296.701 17.6953C295.373 17.6953 294.23 18.0078 293.273 18.6328C292.336 19.2578 291.564 20.127 290.959 21.2402C290.373 22.3535 289.943 23.6914 289.67 25.2539C289.396 26.7969 289.26 28.4961 289.26 30.3516C289.26 32.2461 289.436 33.9355 289.787 35.4199C290.139 36.8848 290.646 38.1348 291.311 39.1699C291.975 40.1855 292.785 40.9668 293.742 41.5137C294.719 42.041 295.832 42.3047 297.082 42.3047C298.547 42.3047 299.992 41.9922 301.418 41.3672C302.863 40.7227 304.113 39.873 305.168 38.8184V20.2734ZM305.168 3.42773H300.012V1.20117C300.422 1.02539 300.998 0.859375 301.74 0.703125C302.482 0.546875 303.293 0.419922 304.172 0.322266C305.07 0.224609 305.979 0.146484 306.896 0.0878906C307.834 0.0292969 308.684 0 309.445 0C309.855 0 310.217 0.00976562 310.529 0.0292969C310.842 0.0488281 311.105 0.107422 311.32 0.205078C311.535 0.302734 311.691 0.458984 311.789 0.673828C311.906 0.869141 311.965 1.16211 311.965 1.55273V42.0703H317.062V44.2676C316.73 44.4434 316.271 44.6094 315.686 44.7656C315.119 44.9219 314.484 45.0586 313.781 45.1758C313.078 45.293 312.346 45.3809 311.584 45.4395C310.822 45.498 310.09 45.5273 309.387 45.5273C308.781 45.5273 308.225 45.4883 307.717 45.4102C307.209 45.3516 306.76 45.2148 306.369 45C305.998 44.8047 305.705 44.5312 305.49 44.1797C305.275 43.8086 305.168 43.3203 305.168 42.7148V42.2461C304.973 42.3828 304.602 42.6562 304.055 43.0664C303.508 43.457 302.814 43.8672 301.975 44.2969C301.154 44.707 300.188 45.0781 299.074 45.4102C297.98 45.7422 296.789 45.9082 295.5 45.9082C293.449 45.9082 291.594 45.498 289.934 44.6777C288.273 43.8379 286.857 42.7051 285.686 41.2793C284.514 39.834 283.605 38.1543 282.961 36.2402C282.336 34.3262 282.023 32.2852 282.023 30.1172C282.023 27.7344 282.287 25.5566 282.814 23.584C283.361 21.6113 284.182 19.9219 285.275 18.5156C286.389 17.1094 287.775 16.0254 289.436 15.2637C291.096 14.4824 293.039 14.0918 295.266 14.0918C296.984 14.0918 298.684 14.3359 300.363 14.8242C302.062 15.293 303.664 16.0742 305.168 17.168V3.42773ZM330.1 25.3125C330.1 27.9297 330.666 29.9805 331.799 31.4648C332.932 32.9297 334.68 33.6621 337.043 33.6621C339.406 33.6621 341.154 32.9297 342.287 31.4648C343.439 29.9805 344.016 27.9297 344.016 25.3125C344.016 22.6953 343.449 20.6641 342.316 19.2188C341.184 17.7734 339.426 17.0508 337.043 17.0508C334.68 17.0508 332.932 17.7734 331.799 19.2188C330.666 20.6641 330.1 22.6953 330.1 25.3125ZM325.969 48.9551C326.691 50.0488 327.473 51.0156 328.312 51.8555C329.172 52.7148 330.119 53.4375 331.154 54.0234C332.189 54.6094 333.322 55.0488 334.553 55.3418C335.803 55.6543 337.16 55.8105 338.625 55.8105C339.387 55.8105 340.246 55.752 341.203 55.6348C342.18 55.5176 343.098 55.293 343.957 54.9609C344.816 54.6289 345.539 54.1602 346.125 53.5547C346.711 52.9688 347.004 52.1973 347.004 51.2402C347.004 50.4785 346.672 49.873 346.008 49.4238C345.363 48.9746 344.504 48.6035 343.43 48.3105C342.375 48.0176 341.164 47.7832 339.797 47.6074C338.43 47.4316 337.033 47.2363 335.607 47.0215C334.182 46.8066 332.785 46.543 331.418 46.2305C330.051 45.918 328.83 45.498 327.756 44.9707C326.701 44.4238 325.842 43.7305 325.178 42.8906C324.533 42.0508 324.211 40.9961 324.211 39.7266C324.211 38.9453 324.357 38.291 324.65 37.7637C324.943 37.2168 325.314 36.7578 325.764 36.3867C326.213 36.0156 326.701 35.6934 327.229 35.4199C327.756 35.1465 328.254 34.8828 328.723 34.6289C327.004 33.6523 325.646 32.3828 324.65 30.8203C323.674 29.2383 323.186 27.4023 323.186 25.3125C323.186 23.5742 323.537 22.0117 324.24 20.625C324.943 19.2383 325.92 18.0664 327.17 17.1094C328.42 16.1328 329.885 15.3906 331.564 14.8828C333.244 14.3555 335.07 14.0918 337.043 14.0918C339.523 14.0918 341.77 14.5117 343.781 15.3516C345.793 16.1719 347.414 17.334 348.645 18.8379L350.373 16.6699C351.018 15.8887 351.594 15.2539 352.102 14.7656C352.629 14.2578 353.127 13.8672 353.596 13.5938C354.064 13.3203 354.523 13.1348 354.973 13.0371C355.441 12.9395 355.949 12.8906 356.496 12.8906C356.75 12.8906 357.033 12.9297 357.346 13.0078C357.678 13.0664 357.98 13.1738 358.254 13.3301C358.527 13.4863 358.762 13.6914 358.957 13.9453C359.152 14.1797 359.25 14.4727 359.25 14.8242V18.7793C357.902 18.7793 356.76 18.7891 355.822 18.8086C354.885 18.8281 354.074 18.916 353.391 19.0723C352.707 19.209 352.092 19.4336 351.545 19.7461C351.018 20.0586 350.49 20.498 349.963 21.0645C350.256 21.7285 350.48 22.4023 350.637 23.0859C350.812 23.7695 350.9 24.5312 350.9 25.3711C350.9 27.1094 350.549 28.6719 349.846 30.0586C349.143 31.4258 348.166 32.5977 346.916 33.5742C345.686 34.5508 344.221 35.3027 342.521 35.8301C340.842 36.3379 339.016 36.5918 337.043 36.5918C335.988 36.5918 334.982 36.5234 334.025 36.3867C333.088 36.25 332.18 36.0449 331.301 35.7715C330.559 36.1621 329.973 36.582 329.543 37.0312C329.113 37.4609 328.898 37.9004 328.898 38.3496C328.898 39.1309 329.24 39.7363 329.924 40.166C330.627 40.5762 331.545 40.8984 332.678 41.1328C333.83 41.3672 335.139 41.543 336.604 41.6602C338.068 41.7773 339.553 41.9238 341.057 42.0996C342.58 42.2754 344.074 42.5098 345.539 42.8027C347.004 43.0957 348.303 43.5449 349.436 44.1504C350.588 44.7363 351.506 45.5078 352.189 46.4648C352.893 47.4219 353.244 48.6523 353.244 50.1562C353.244 51.7188 352.805 53.0762 351.926 54.2285C351.047 55.4004 349.885 56.3672 348.439 57.1289C346.994 57.8906 345.344 58.457 343.488 58.8281C341.633 59.2188 339.729 59.4141 337.775 59.4141C336.408 59.4141 335.031 59.3262 333.645 59.1504C332.277 58.9746 330.949 58.7305 329.66 58.418C328.371 58.1055 327.17 57.7246 326.057 57.2754C324.943 56.8457 323.977 56.3672 323.156 55.8398C322.336 55.332 321.682 54.7852 321.193 54.1992C320.725 53.6133 320.49 53.0078 320.49 52.3828C320.49 52.0898 320.588 51.8164 320.783 51.5625C320.998 51.3086 321.32 51.0449 321.75 50.7715C322.199 50.5176 322.766 50.2344 323.449 49.9219C324.152 49.6289 324.992 49.3066 325.969 48.9551ZM384.592 27.8906C384.709 27.5 384.787 27.1094 384.826 26.7188C384.865 26.3281 384.885 25.918 384.885 25.4883C384.885 24.5312 384.719 23.5742 384.387 22.6172C384.074 21.6406 383.605 20.7617 382.98 19.9805C382.375 19.1992 381.613 18.5645 380.695 18.0762C379.797 17.5879 378.762 17.3438 377.59 17.3438C376.086 17.3438 374.826 17.6367 373.811 18.2227C372.814 18.7891 371.994 19.5605 371.35 20.5371C370.725 21.4941 370.266 22.6172 369.973 23.9062C369.68 25.1758 369.494 26.5039 369.416 27.8906H384.592ZM362.59 30C362.59 27.6758 362.961 25.5469 363.703 23.6133C364.465 21.6602 365.549 19.9805 366.955 18.5742C368.381 17.168 370.119 16.0742 372.17 15.293C374.221 14.4922 376.545 14.0918 379.143 14.0918C381.096 14.0918 382.844 14.4043 384.387 15.0293C385.93 15.6543 387.238 16.4941 388.312 17.5488C389.387 18.6035 390.207 19.8242 390.773 21.2109C391.34 22.5977 391.623 24.043 391.623 25.5469C391.623 26.25 391.564 26.9531 391.447 27.6562C391.33 28.3594 391.105 28.9941 390.773 29.5605C390.441 30.127 389.973 30.5957 389.367 30.9668C388.762 31.3184 387.971 31.4941 386.994 31.4941H369.475C369.67 33.252 370.129 34.8047 370.852 36.1523C371.574 37.5 372.502 38.6426 373.635 39.5801C374.768 40.498 376.076 41.1914 377.561 41.6602C379.045 42.1289 380.646 42.3633 382.365 42.3633C383.537 42.3633 384.748 42.2656 385.998 42.0703C387.248 41.8555 388.537 41.5332 389.865 41.1035L390.832 43.0664C390.031 43.6133 389.172 44.082 388.254 44.4727C387.336 44.8633 386.389 45.1758 385.412 45.4102C384.436 45.6641 383.439 45.8496 382.424 45.9668C381.408 46.084 380.412 46.1426 379.436 46.1426C377.287 46.1426 375.197 45.8008 373.166 45.1172C371.154 44.4531 369.357 43.4473 367.775 42.0996C366.213 40.752 364.953 39.0723 363.996 37.0605C363.059 35.0488 362.59 32.6953 362.59 30Z" fill="white"/>
</svg>
